# xmcd
#
# Track frame offsets:
#	150
#	13255
#	27878
#	40647
#	54603
#	67684
#	82133
#	96357
#	111203
#	125038
#	139795
#	154518
#	168628
#	181215
#	195227
#	210505
#	225619
#	240742
#
# Disc length: 3433 seconds
#
# Revision: 0
# Processed by: cddbd v1.5.2PL0 Copyright (c) Steve Scherf et al.
# Submitted via: EasyCDDAExtractor 16.0.6.1
#
DISCID=ed0d6712
DTITLE=Συλλογικός δίσκος - Ρεμπέτικο σεργιάνι 2 Ρεμπ. δημ. τραγούδια
DYEAR=1998
DGENRE=Παραδοσιακή
TTITLE0=Αμπατζή Ρίτα - Τζάνε μ' ποταμέ μου [καλαματιανός]
TTITLE1=Ρούκουνας Κώστας ή Σαμιωτάκης - Αγκινάρα με τ' αγκάθια [παραδοσιακό]
TTITLE2=Σοφρωνίου Βαγγέλης - Ανδρούτσος [παραδοσιακό]
TTITLE3=Περπινιάδης Στελλάκης - Τα δυό σου μάτια [Δημ. Σέμσης-Σ. Περπινιάδης]
TTITLE4=Καρίπης Κώστας - Τούρκοι βαστάτε τ' άλογα [παραδοσιακό]
TTITLE5=Καρίπης Κώστας - Μελαχροινό μου πρόσωπο [Ρ. Εσκενάζυ]
TTITLE6=Αμπατζή Ρίτα - Δασκαλοπούλα λυγερή [Παν. Τούντας]
TTITLE7=Περπινιάδης Στελλάκης - Δροσάτη Πελοπόννησος [Γ. Εϊτζιρίδης]
TTITLE8=Διαμαντίδης Αντώνης ή Νταλγκάς - Βασιλική προστάζει [παραδοσιακό]
TTITLE9=Παπαγκίκα Μαρίκα - Δασκάλα [παραδοσιακό]
TTITLE10=Περδικόπουλος Δημήτρης - Μπήκε μια ρούσα στο χορό [Δ. Περδικόπουλου-Ι
TTITLE10=Ηλία]
TTITLE11=Μαρσέλος Κώστας ή Νούρος - Αλή πασάς [παραδ., κλέφτικο]
TTITLE12=Διαμαντίδης Αντώνης ή Νταλγκάς - Λούλος [παραδοσιακό]
TTITLE13=Μηττάκη Γεωργία - Η λαφίνα [παραδοσιακό]
TTITLE14=Ρούκουνας Κώστας ή Σαμιωτάκης - Τ' ακούς μωρή σουλτάνα  [Κ. Ρούκουνας
TTITLE14=]
TTITLE15=Σοφρωνίου Βαγγέλης - Η Λιβαδειά [παραδοσιακό]
TTITLE16=Εσκενάζυ Ρόζα - Η Ρήνα [παραδοσιακό]
TTITLE17=Παπαγκίκα Μαρίκα - Λεμονάκι [παραδοσιακό]
EXTD=
EXTT0=
EXTT1=
EXTT2=
EXTT3=
EXTT4=
EXTT5=
EXTT6=
EXTT7=
EXTT8=
EXTT9=
EXTT10=
EXTT11=
EXTT12=
EXTT13=
EXTT14=
EXTT15=
EXTT16=
EXTT17=
PLAYORDER=
